# This file uses centimeters as units for non-parametric coordinates.

mtllib Tree 3.mtl
g default
v 0.492479 7.750157 -3.648292
v 3.807862 9.543631 -1.326923
v -0.320602 10.618699 -1.387087
v -2.775038 7.838007 -1.349195
v -0.767002 6.261529 -1.349195
v 3.063539 6.284939 -1.318565
v 3.910843 7.750157 1.599039
v 1.416295 10.572992 1.416007
v -2.673444 9.395195 1.522660
v -2.665015 6.497726 1.522659
v 1.026859 5.832956 1.522659
v -0.295186 7.753671 3.121838
v -0.000856 9.371269 -2.715695
v 1.896399 8.794389 -2.214290
v 1.475150 10.716859 -1.754181
v -1.268559 7.750157 -2.760650
v -1.394780 9.359100 -1.601301
v -0.096941 6.453332 -2.807456
v -2.101339 6.497846 -1.601301
v 1.893848 6.811594 -2.701418
v 1.263115 5.852018 -1.601301
v 3.457086 7.750157 -1.470281
v 3.538860 10.858823 0.125639
v 0.518676 11.580050 0.081176
v -1.654987 9.976515 0.086732
v -3.414477 9.113943 0.086732
v -3.338234 6.843360 0.086732
v -2.132012 5.897906 0.086732
v 0.029181 5.780854 0.086732
v 2.607503 5.970225 0.086732
v 4.748640 6.815087 0.094839
v 5.063236 8.779761 0.091841
v 3.694864 9.371686 2.090548
v -0.969258 9.980010 1.609477
v -2.728563 7.806136 1.774766
v -1.256668 6.461599 1.774766
v 2.683777 6.342214 1.774766
v 2.033145 7.750157 2.778563
v -0.105759 9.220134 1.909433
v -1.763608 8.712031 2.689349
v -1.766281 7.015911 2.818028
v 0.539401 6.438920 2.818028
v 0.892655 0.000317 -0.866025
v -0.107345 0.000317 -0.866026
v -0.607345 0.000317 -0.000000
v -0.107345 0.000317 0.866025
v 0.892655 0.000317 0.866025
v 1.392655 0.000317 0.000000
v 0.750467 0.735609 -0.564803
v 0.098288 0.735609 -0.564803
v -0.227801 0.735609 -0.000000
v 0.098288 0.735609 0.564803
v 0.750467 0.735609 0.564803
v 1.076556 0.735609 -0.000000
v 0.392655 0.000317 0.000000
v 0.112912 3.010607 -0.334329
v -0.273138 3.010607 -0.334330
v -0.466164 3.010607 -0.000000
v -0.273139 3.010607 0.334329
v 0.112912 3.010607 0.334330
v 0.305937 3.010607 0.000000
v 0.330009 4.772953 -0.261663
v 0.027867 4.772953 -0.261663
v -0.123204 4.772953 -0.000000
v 0.027867 4.772953 0.261663
v 0.330009 4.772953 0.261663
v 0.481080 4.598905 0.000000
v 0.330009 4.995795 -0.261663
v 0.027867 4.995795 -0.261663
v -0.123204 4.995795 -0.000000
v 0.027867 4.995795 0.261663
v 0.330009 4.995795 0.261663
v 0.481080 5.230747 0.000000
v 0.102261 5.999485 -0.177121
v -0.102261 5.999485 -0.177121
v -0.000000 5.999485 -0.000000
v -0.204521 5.999485 -0.000000
v -0.102261 5.999485 0.177121
v 0.102261 5.999485 0.177121
v 0.204521 5.999485 -0.000000
v 1.385305 5.883360 0.072025
v 1.424680 5.871984 0.000000
v 1.249333 5.936228 0.000000
v 1.286731 5.919476 0.072025
v 1.385305 5.883360 -0.072024
v 1.286731 5.919476 -0.072024
v 1.423383 5.872262 0.000000
v 1.384009 5.883638 -0.072024
v 1.285435 5.919755 -0.072024
v 1.248037 5.936505 0.000000
vt 0.182862 0.733596
vt 0.202749 0.644592
vt 0.286244 0.755140
vt 0.055089 0.654990
vt 0.312407 0.716354
vt 0.197625 0.848587
vt 0.059350 0.744080
vt 0.216334 0.578136
vt 0.290998 0.652542
vt 0.350063 0.783227
vt 0.333726 0.659575
vt 0.387150 0.768381
vt 0.024317 0.879722
vt 0.107928 0.972196
vt 0.272208 0.865757
vt 0.258662 0.987972
vt 0.390812 0.886782
vt 0.683315 0.143595
vt 0.734692 0.141312
vt 0.736208 0.182041
vt 0.685757 0.182752
vt 0.786397 0.141656
vt 0.783777 0.182857
vt 0.736208 0.303285
vt 0.701469 0.304048
vt 0.767738 0.304101
vt 0.736208 0.397208
vt 0.695132 0.397927
vt 0.773823 0.398023
vt 0.736208 0.409084
vt 0.695100 0.409803
vt 0.773823 0.409900
vt 0.736208 0.462575
vt 0.691232 0.468434
vt 0.768103 0.463390
vt 0.848177 0.144444
vt 0.898928 0.146034
vt 0.898928 0.185221
vt 0.852415 0.183631
vt 0.945081 0.146034
vt 0.929028 0.185221
vt 0.898928 0.306465
vt 0.841567 0.304875
vt 0.916745 0.306465
vt 0.898928 0.391111
vt 0.836329 0.396048
vt 0.912873 0.400387
vt 0.895393 0.460137
vt 0.853793 0.460725
vt 0.910228 0.459565
vt 0.157157 0.543240
vt 0.205464 0.547543
vt 0.237303 0.475902
vt 0.183674 0.412579
vt 0.294824 0.512641
vt 0.298795 0.381481
vt 0.125052 0.508113
vt 0.394482 0.445856
vt 0.329906 0.600474
vt 0.372580 0.507391
vt 0.471403 0.397090
vt 0.488978 0.549644
vt 0.394197 0.589308
vt 0.740127 0.827223
vt 0.701611 0.976690
vt 0.638514 0.902441
vt 0.818254 0.983391
vt 0.679570 0.753794
vt 0.583828 0.810310
vt 0.744633 0.732509
vt 0.481918 0.877848
vt 0.603387 0.675581
vt 0.688821 0.610188
vt 0.488760 0.808847
vt 0.426205 0.718705
vt 0.515003 0.648615
vt 0.706417 0.093680
vt 0.732952 0.047462
vt 0.759711 0.093552
vt 0.786246 0.047333
vt 0.813005 0.093423
vt 0.667295 0.467653
vt 0.675818 0.482676
vt 0.686701 0.483285
vt 0.664935 0.482067
vt 0.680732 0.492405
vt 0.669849 0.491796
vt 0.609092 0.475336
vt 0.605039 0.473691
vt 0.612275 0.467778
vt 0.613160 0.472012
vt 0.643848 0.431577
vt 0.649150 0.446916
vt 0.646613 0.417391
vt 0.604444 0.461911
vt 0.051155 0.538300
vt 0.031540 0.424074
vt 0.104653 0.427342
vt 0.159823 0.260070
vt 0.260952 0.328615
vt 0.038565 0.580809
vt 0.339419 0.274914
vt 0.581104 0.580676
vt 0.623282 0.142417
vt 0.630649 0.181644
vt 0.663975 0.303069
vt 0.651900 0.396928
vt 0.595341 0.455803
vt 0.658236 0.462330
vt 0.806919 0.409477
vt 0.838270 0.460274
vt 0.801458 0.462575
vt 0.817326 0.429853
vt 0.806908 0.462575
vn 0.365196 0.545223 -0.754562
vn 0.365196 0.545223 -0.754562
vn 0.365196 0.545223 -0.754562
vn -0.180268 0.695065 -0.695980
vn -0.180268 0.695065 -0.695980
vn -0.180268 0.695065 -0.695980
vn 0.325362 0.286932 -0.901005
vn 0.325362 0.286932 -0.901005
vn 0.325362 0.286932 -0.901005
vn 0.309472 0.284937 -0.907214
vn 0.309472 0.284937 -0.907214
vn 0.309472 0.284937 -0.907214
vn -0.421201 0.352551 -0.835642
vn -0.421201 0.352551 -0.835642
vn -0.421201 0.352551 -0.835642
vn -0.601921 0.435222 -0.669532
vn -0.601921 0.435222 -0.669532
vn -0.601921 0.435222 -0.669532
vn -0.558238 0.455766 -0.693288
vn -0.558238 0.455766 -0.693288
vn -0.558238 0.455766 -0.693288
vn -0.522224 0.555407 -0.647151
vn -0.522224 0.555407 -0.647151
vn -0.522224 0.555407 -0.647151
vn -0.421523 -0.350642 -0.836282
vn -0.421523 -0.350642 -0.836282
vn -0.421523 -0.350642 -0.836282
vn -0.136197 -0.972203 -0.190453
vn -0.136197 -0.972203 -0.190453
vn -0.136197 -0.972203 -0.190453
vn -0.478238 -0.403918 -0.779833
vn -0.478238 -0.403918 -0.779833
vn -0.478238 -0.403918 -0.779833
vn -0.675386 -0.206328 -0.708013
vn -0.675386 -0.206328 -0.708013
vn -0.675386 -0.206328 -0.708013
vn 0.147676 -0.584449 -0.797879
vn 0.147676 -0.584449 -0.797879
vn 0.147676 -0.584449 -0.797879
vn 0.276009 -0.797122 -0.537044
vn 0.276009 -0.797122 -0.537044
vn 0.276009 -0.797122 -0.537044
vn 0.173414 -0.789286 -0.589030
vn 0.173414 -0.789286 -0.589030
vn 0.173414 -0.789286 -0.589030
vn -0.219488 -0.949151 -0.225693
vn -0.219488 -0.949151 -0.225693
vn -0.219488 -0.949151 -0.225693
vn 0.631972 0.184133 -0.752799
vn 0.631972 0.184133 -0.752799
vn 0.631972 0.184133 -0.752799
vn 0.424481 -0.010653 -0.905374
vn 0.424481 -0.010653 -0.905374
vn 0.424481 -0.010653 -0.905374
vn 0.528268 0.201935 -0.824715
vn 0.528268 0.201935 -0.824715
vn 0.528268 0.201935 -0.824715
vn 0.688135 -0.255160 -0.679238
vn 0.688135 -0.255160 -0.679238
vn 0.688135 -0.255160 -0.679238
vn 0.453366 0.700890 -0.550647
vn 0.453366 0.700890 -0.550647
vn 0.453366 0.700890 -0.550647
vn -0.145800 0.863818 -0.482246
vn -0.145801 0.863818 -0.482246
vn -0.145801 0.863818 -0.482246
vn 0.224747 0.921641 -0.316335
vn 0.224747 0.921641 -0.316335
vn 0.224747 0.921641 -0.316335
vn 0.193490 0.841363 0.504648
vn 0.193490 0.841363 0.504648
vn 0.193490 0.841363 0.504648
vn -0.685907 0.642909 -0.340882
vn -0.685907 0.642909 -0.340882
vn -0.685907 0.642909 -0.340882
vn -0.606548 0.440716 -0.661716
vn -0.606548 0.440716 -0.661716
vn -0.606548 0.440716 -0.661716
vn -0.409229 0.834753 -0.368401
vn -0.409229 0.834753 -0.368401
vn -0.409229 0.834753 -0.368401
vn -0.439611 0.896726 0.051228
vn -0.439611 0.896726 0.051228
vn -0.439611 0.896726 0.051228
vn -0.797296 -0.302550 -0.522286
vn -0.797296 -0.302550 -0.522286
vn -0.797296 -0.302550 -0.522286
vn -0.102641 -0.936692 -0.334773
vn -0.102641 -0.936692 -0.334773
vn -0.102641 -0.936692 -0.334773
vn -0.592338 -0.755712 -0.279348
vn -0.592338 -0.755712 -0.279348
vn -0.592338 -0.755712 -0.279348
vn -0.613848 -0.783155 0.099287
vn -0.613848 -0.783156 0.099287
vn -0.613848 -0.783156 0.099287
vn -0.217488 -0.955507 -0.199264
vn -0.217488 -0.955507 -0.199264
vn -0.217488 -0.955507 -0.199264
vn 0.251422 -0.958681 -0.133105
vn 0.251422 -0.958681 -0.133105
vn 0.251422 -0.958681 -0.133105
vn 0.073245 -0.997248 0.011500
vn 0.073245 -0.997248 0.011500
vn 0.073245 -0.997248 0.011500
vn 0.073242 -0.997206 -0.014706
vn 0.073242 -0.997206 -0.014706
vn 0.073242 -0.997206 -0.014706
vn 0.667209 -0.251795 -0.701022
vn 0.667209 -0.251795 -0.701022
vn 0.667209 -0.251795 -0.701022
vn 0.722540 -0.086492 -0.685897
vn 0.722540 -0.086492 -0.685897
vn 0.722540 -0.086492 -0.685897
vn 0.730169 -0.117946 -0.673009
vn 0.730169 -0.117946 -0.673009
vn 0.730169 -0.117946 -0.673009
vn 0.828881 -0.131896 0.543655
vn 0.828881 -0.131896 0.543654
vn 0.828881 -0.131896 0.543654
vn 0.748428 0.554661 -0.363604
vn 0.748428 0.554661 -0.363604
vn 0.748428 0.554661 -0.363604
vn 0.242986 0.782660 0.573063
vn 0.242986 0.782660 0.573062
vn 0.242986 0.782660 0.573062
vn 0.756554 0.548931 0.355390
vn 0.756553 0.548931 0.355390
vn 0.756553 0.548931 0.355390
vn 0.814036 -0.066472 0.576998
vn 0.814036 -0.066472 0.576998
vn 0.814036 -0.066472 0.576998
vn -0.583817 0.790753 -0.184030
vn -0.583817 0.790753 -0.184030
vn -0.583817 0.790753 -0.184030
vn -0.327753 0.933500 0.145452
vn -0.327753 0.933500 0.145452
vn -0.327753 0.933500 0.145452
vn -0.573379 0.778129 0.256420
vn -0.573379 0.778129 0.256420
vn -0.573379 0.778129 0.256420
vn -0.132618 0.746321 0.652240
vn -0.132618 0.746322 0.652240
vn -0.132618 0.746321 0.652240
vn -0.923023 -0.030994 -0.383495
vn -0.923023 -0.030994 -0.383495
vn -0.923023 -0.030994 -0.383495
vn -0.909658 -0.120756 0.397417
vn -0.909658 -0.120756 0.397417
vn -0.909658 -0.120756 0.397417
vn -0.934223 -0.031370 0.355308
vn -0.934223 -0.031370 0.355308
vn -0.934223 -0.031370 0.355308
vn -0.892026 0.100842 0.440592
vn -0.892026 0.100842 0.440592
vn -0.892026 0.100842 0.440592
vn -0.051740 -0.955294 -0.291096
vn -0.051740 -0.955294 -0.291096
vn -0.051740 -0.955294 -0.291096
vn -0.239350 -0.949949 0.200769
vn -0.239350 -0.949949 0.200769
vn -0.239350 -0.949949 0.200769
vn -0.050860 -0.939063 0.339961
vn -0.050860 -0.939063 0.339961
vn -0.050860 -0.939063 0.339961
vn -0.087610 -0.930331 0.356101
vn -0.087610 -0.930331 0.356101
vn -0.087610 -0.930331 0.356101
vn 0.365888 -0.926419 -0.088735
vn 0.365888 -0.926419 -0.088735
vn 0.365888 -0.926419 -0.088735
vn 0.620939 -0.462145 0.633133
vn 0.620939 -0.462145 0.633133
vn 0.620939 -0.462145 0.633133
vn 0.360087 -0.914347 0.185222
vn 0.360087 -0.914347 0.185222
vn 0.360087 -0.914347 0.185222
vn 0.260617 -0.945229 0.196523
vn 0.260617 -0.945229 0.196523
vn 0.260617 -0.945229 0.196523
vn 0.522978 -0.182696 0.832536
vn 0.522978 -0.182696 0.832536
vn 0.522978 -0.182696 0.832536
vn -0.059543 0.400485 0.914367
vn -0.059543 0.400485 0.914367
vn -0.059543 0.400485 0.914367
vn -0.060268 0.441591 0.895190
vn -0.060268 0.441591 0.895190
vn -0.060268 0.441591 0.895190
vn 0.114885 0.624111 0.772843
vn 0.114885 0.624111 0.772843
vn 0.114885 0.624111 0.772843
vn -0.012408 0.354914 0.934817
vn -0.012408 0.354914 0.934817
vn -0.012408 0.354914 0.934817
vn -0.278855 0.717912 0.637842
vn -0.278855 0.717912 0.637842
vn -0.278855 0.717912 0.637842
vn 0.208705 0.555024 0.805227
vn 0.208705 0.555024 0.805227
vn 0.208705 0.555024 0.805227
vn 0.173991 0.614021 0.769873
vn 0.173991 0.614021 0.769873
vn 0.173991 0.614021 0.769873
vn -0.743581 0.129854 0.655915
vn -0.743581 0.129854 0.655915
vn -0.743581 0.129854 0.655915
vn -0.781771 -0.154379 0.604153
vn -0.781771 -0.154379 0.604153
vn -0.781771 -0.154379 0.604153
vn -0.713208 0.054144 0.698858
vn -0.713208 0.054144 0.698858
vn -0.713208 0.054144 0.698858
vn -0.237093 0.073863 0.968675
vn -0.237093 0.073863 0.968675
vn -0.237093 0.073863 0.968675
vn -0.099731 -0.898050 0.428440
vn -0.099731 -0.898050 0.428440
vn -0.099731 -0.898050 0.428440
vn -0.213116 -0.913314 0.347043
vn -0.213116 -0.913314 0.347043
vn -0.213116 -0.913314 0.347043
vn -0.225643 -0.901679 0.368863
vn -0.225643 -0.901679 0.368863
vn -0.225643 -0.901679 0.368863
vn -0.066146 -0.264323 0.962163
vn -0.066146 -0.264323 0.962163
vn -0.066146 -0.264323 0.962163
vn 0.191944 -0.859250 0.474180
vn 0.191944 -0.859250 0.474180
vn 0.191944 -0.859250 0.474180
vn 0.500821 -0.336973 0.797263
vn 0.500820 -0.336973 0.797263
vn 0.500820 -0.336973 0.797263
vn 0.383529 -0.412034 0.826519
vn 0.383529 -0.412034 0.826519
vn 0.383529 -0.412034 0.826519
vn 0.144324 -0.134908 0.980291
vn 0.144324 -0.134908 0.980291
vn 0.144324 -0.134908 0.980291
vn 0.000000 0.379087 -0.925361
vn 0.000000 0.379087 -0.925361
vn 0.000000 0.379087 -0.925361
vn 0.000000 0.379087 -0.925361
vn -0.790625 0.408105 -0.456468
vn -0.790625 0.408105 -0.456468
vn -0.790625 0.408105 -0.456468
vn -0.790625 0.408105 -0.456468
vn -0.790625 0.408105 0.456467
vn -0.790625 0.408105 0.456467
vn -0.790625 0.408105 0.456467
vn -0.790625 0.408105 0.456467
vn 0.000000 0.379087 0.925361
vn 0.000000 0.379087 0.925361
vn 0.000000 0.379087 0.925361
vn 0.000000 0.379087 0.925361
vn 0.811603 0.348905 0.468579
vn 0.811603 0.348905 0.468579
vn 0.811603 0.348905 0.468579
vn 0.811603 0.348905 0.468579
vn 0.811603 0.348905 -0.468579
vn 0.811603 0.348905 -0.468579
vn 0.811603 0.348905 -0.468579
vn 0.811603 0.348905 -0.468579
vn 0.000000 -1.000000 0.000000
vn 0.000000 -1.000000 0.000000
vn 0.000000 -1.000000 0.000000
vn 0.000000 -1.000000 0.000000
vn 0.000000 -1.000000 0.000000
vn 0.000000 -1.000000 0.000000
vn 0.000000 -1.000000 0.000000
vn 0.000000 -1.000000 0.000000
vn 0.000000 -1.000000 0.000000
vn 0.000000 -1.000000 0.000000
vn 0.000000 -1.000000 0.000000
vn 0.000000 -1.000000 0.000000
vn 0.000000 -1.000000 0.000000
vn 0.000000 -1.000000 0.000000
vn 0.000000 -1.000000 0.000000
vn 0.000000 -1.000000 0.000000
vn 0.000000 -1.000000 0.000000
vn 0.000000 -1.000000 0.000000
vn 0.000000 1.000000 0.000000
vn 0.000000 1.000000 0.000000
vn 0.000000 1.000000 0.000000
vn 0.000000 1.000000 0.000000
vn 0.000000 1.000000 0.000000
vn 0.000000 1.000000 0.000000
vn 0.000000 1.000000 0.000000
vn 0.000000 1.000000 0.000000
vn 0.000000 1.000000 0.000000
vn 0.000000 1.000000 0.000000
vn 0.000000 1.000000 0.000000
vn 0.000000 1.000000 0.000000
vn 0.000000 1.000000 0.000000
vn 0.000000 1.000000 0.000000
vn 0.000000 1.000000 0.000000
vn 0.000000 1.000000 0.000000
vn 0.000000 1.000000 0.000000
vn 0.000000 1.000000 0.000000
vn 0.000000 0.100791 -0.994908
vn 0.000000 0.100791 -0.994908
vn 0.000000 0.100791 -0.994908
vn 0.000000 0.100791 -0.994908
vn -0.862482 -0.090366 -0.497955
vn -0.862482 -0.090366 -0.497955
vn -0.862482 -0.090366 -0.497955
vn -0.862482 -0.090366 -0.497955
vn -0.862482 -0.090366 0.497954
vn -0.862482 -0.090366 0.497954
vn -0.862482 -0.090366 0.497954
vn -0.862482 -0.090366 0.497954
vn -0.000000 0.100791 0.994908
vn -0.000000 0.100791 0.994908
vn -0.000000 0.100791 0.994908
vn -0.000000 0.100791 0.994908
vn 0.831007 0.281490 0.479782
vn 0.831007 0.281490 0.479782
vn 0.831007 0.281490 0.479782
vn 0.831007 0.281490 0.479782
vn 0.831007 0.281490 -0.479782
vn 0.831007 0.281490 -0.479782
vn 0.831007 0.281490 -0.479782
vn 0.831007 0.281490 -0.479782
vn 0.000001 0.041198 -0.999151
vn 0.000001 0.041198 -0.999151
vn 0.000001 0.041198 -0.999151
vn 0.000001 0.041198 -0.999151
vn -0.853983 0.166188 -0.493047
vn -0.853982 0.166188 -0.493047
vn -0.853982 0.166188 -0.493047
vn -0.853982 0.166188 -0.493047
vn -0.853983 0.166188 0.493047
vn -0.853983 0.166188 0.493047
vn -0.853983 0.166188 0.493047
vn -0.853982 0.166188 0.493047
vn -0.000001 0.041198 0.999151
vn -0.000001 0.041198 0.999151
vn -0.000001 0.041198 0.999151
vn -0.000001 0.041198 0.999151
vn 0.851233 -0.088430 0.517284
vn 0.851233 -0.088430 0.517284
vn 0.851233 -0.088430 0.517284
vn 0.851233 -0.088430 0.517284
vn 0.851233 -0.088430 -0.517284
vn 0.851233 -0.088430 -0.517284
vn 0.851233 -0.088430 -0.517284
vn 0.851233 -0.088430 -0.517284
vn 0.000001 0.000000 -1.000000
vn 0.000001 0.000000 -1.000000
vn 0.000001 0.000000 -1.000000
vn 0.000001 0.000000 -1.000000
vn -0.866025 0.000000 -0.500000
vn -0.866025 0.000000 -0.500000
vn -0.866025 0.000000 -0.500000
vn -0.866025 0.000000 -0.500000
vn -0.866026 -0.000000 0.499999
vn -0.866026 -0.000000 0.499999
vn -0.866026 -0.000000 0.499999
vn -0.866026 -0.000000 0.499999
vn -0.000001 0.000000 1.000000
vn -0.000001 0.000000 1.000000
vn -0.000001 0.000000 1.000000
vn -0.000001 0.000000 1.000000
vn 0.343747 0.938221 0.039740
vn 0.343747 0.938221 0.039740
vn 0.343747 0.938221 0.039740
vn 0.343747 0.938221 0.039740
vn 0.343748 0.938221 -0.039729
vn 0.343748 0.938221 -0.039729
vn 0.343748 0.938221 -0.039729
vn 0.343748 0.938221 -0.039729
vn 0.000001 0.083934 -0.996471
vn 0.000001 0.083934 -0.996471
vn 0.000001 0.083934 -0.996471
vn 0.000001 0.083934 -0.996471
vn -0.863902 -0.069992 -0.498773
vn -0.863902 -0.069992 -0.498773
vn -0.863902 -0.069992 -0.498773
vn -0.863902 -0.069992 -0.498773
vn -0.863902 -0.069992 0.498773
vn -0.863902 -0.069992 0.498773
vn -0.863902 -0.069992 0.498773
vn -0.863902 -0.069992 0.498773
vn -0.000001 0.083934 0.996471
vn -0.000001 0.083934 0.996471
vn -0.000001 0.083934 0.996471
vn -0.000001 0.083934 0.996471
vn 0.775379 0.248313 0.580627
vn 0.775379 0.248313 0.580627
vn 0.775379 0.248313 0.580627
vn 0.775379 0.248313 0.580627
vn 0.775380 0.248313 -0.580627
vn 0.775380 0.248313 -0.580627
vn 0.775380 0.248313 -0.580627
vn 0.775380 0.248313 -0.580627
vn 0.624654 -0.474517 0.620194
vn 0.624654 -0.474517 0.620194
vn 0.624654 -0.474517 0.620194
vn 0.624654 -0.474517 0.620194
vn -0.632409 0.706563 0.317534
vn -0.632409 0.706563 0.317534
vn -0.632409 0.706563 0.317534
vn -0.632409 0.706563 0.317534
vn 0.134701 0.051275 0.989559
vn 0.134701 0.051275 0.989559
vn 0.134701 0.051275 0.989559
vn 0.134701 0.051275 0.989559
vn 0.624655 -0.474518 -0.620193
vn 0.624655 -0.474518 -0.620193
vn 0.624655 -0.474518 -0.620193
vn 0.624655 -0.474518 -0.620193
vn 0.134701 0.051274 -0.989559
vn 0.134701 0.051274 -0.989559
vn 0.134701 0.051274 -0.989559
vn 0.134701 0.051274 -0.989559
vn -0.632408 0.706564 -0.317534
vn -0.632408 0.706564 -0.317534
vn -0.632409 0.706563 -0.317534
vn -0.632408 0.706563 -0.317534
vn 0.209522 0.976987 0.039972
vn 0.209522 0.976987 0.039972
vn 0.209522 0.976987 0.039972
vn 0.209522 0.976987 0.039972
vn -0.000006 0.000000 1.000000
vn -0.000006 0.000000 1.000000
vn -0.000006 0.000000 1.000000
vn -0.000006 0.000000 1.000000
vn -0.208404 -0.970941 0.117653
vn -0.208404 -0.970941 0.117653
vn -0.208404 -0.970941 0.117653
vn -0.208404 -0.970941 0.117653
vn 0.000000 0.000000 -1.000000
vn 0.000000 0.000000 -1.000000
vn 0.000000 0.000000 -1.000000
vn 0.000000 0.000000 -1.000000
s off
g pPlatonic2
usemtl texturedFacets
f 1/57/1 13/96/2 14/98/3
f 13/67/4 3/65/5 15/64/6
f 13/96/7 15/97/8 14/98/9
f 14/98/10 15/97/11 2/99/12
f 1/57/13 16/101/14 13/96/15
f 16/7/16 4/1/17 17/6/18
f 16/7/19 17/6/20 13/13/21
f 13/13/22 17/6/23 3/14/24
f 1/57/25 18/51/26 16/101/27
f 18/51/28 5/52/29 19/4/30
f 18/51/31 19/4/32 16/101/33
f 16/7/34 19/4/35 4/1/36
f 1/57/37 20/54/38 18/51/39
f 20/54/40 6/56/41 21/53/42
f 20/54/43 21/53/44 18/51/45
f 18/51/46 21/53/47 5/52/48
f 1/57/49 14/98/50 20/54/51
f 14/98/52 2/99/53 22/100/54
f 14/98/55 22/100/56 20/54/57
f 20/54/58 22/100/59 6/56/60
f 2/70/61 15/64/62 23/68/63
f 15/64/64 3/65/65 24/66/66
f 15/64/67 24/66/68 23/68/69
f 23/68/70 24/66/71 8/69/72
f 3/14/73 17/6/74 25/15/75
f 17/6/76 4/1/77 26/3/78
f 17/6/79 26/3/80 25/15/81
f 25/15/82 26/3/83 9/10/84
f 4/1/85 19/4/86 27/2/87
f 19/4/88 5/52/89 28/8/90
f 19/4/91 28/8/92 27/2/93
f 27/2/94 28/8/95 10/9/96
f 5/52/97 21/53/98 29/55/99
f 21/53/100 6/56/101 30/58/102
f 21/53/103 30/58/104 29/55/105
f 29/55/106 30/58/107 11/60/108
f 6/56/109 22/100/110 31/61/111
f 22/100/112 2/99/113 32/102/114
f 22/100/115 32/102/116 31/61/117
f 31/61/118 32/73/119 7/103/120
f 2/70/121 23/68/122 32/73/123
f 23/68/124 8/69/125 33/72/126
f 23/68/127 33/72/128 32/73/129
f 32/73/130 33/72/131 7/103/132
f 3/14/133 25/15/134 24/16/135
f 25/15/136 9/10/137 34/17/138
f 25/15/139 34/17/140 24/16/141
f 24/66/142 34/71/143 8/69/144
f 4/1/145 27/2/146 26/3/147
f 27/2/148 10/9/149 35/5/150
f 27/2/151 35/5/152 26/3/153
f 26/3/154 35/5/155 9/10/156
f 5/52/157 29/55/158 28/8/159
f 29/55/160 11/60/161 36/59/162
f 29/55/163 36/59/164 28/8/165
f 28/8/166 36/59/167 10/9/168
f 6/56/169 31/61/170 30/58/171
f 31/61/172 7/103/173 37/62/174
f 31/61/175 37/62/176 30/58/177
f 30/58/178 37/62/179 11/60/180
f 7/103/181 33/72/182 38/76/183
f 33/72/184 8/69/185 39/74/186
f 33/72/187 39/74/188 38/76/189
f 38/76/190 39/74/191 12/75/192
f 8/69/193 34/71/194 39/74/195
f 34/17/196 9/10/197 40/12/198
f 34/17/199 40/12/200 39/74/201
f 39/74/202 40/12/203 12/75/204
f 9/10/205 35/5/206 40/12/207
f 35/5/208 10/9/209 41/11/210
f 35/5/211 41/11/212 40/12/213
f 40/12/214 41/11/215 12/75/216
f 10/9/217 36/59/218 41/11/219
f 36/59/220 11/60/221 42/63/222
f 36/59/223 42/63/224 41/11/225
f 41/11/226 42/63/227 12/75/228
f 11/60/229 37/62/230 42/63/231
f 37/62/232 7/103/233 38/76/234
f 37/62/235 38/76/236 42/63/237
f 42/63/238 38/76/239 12/75/240
f 43/104/241 44/18/242 50/21/243 49/105/244
f 44/18/245 45/19/246 51/20/247 50/21/248
f 45/19/249 46/22/250 52/23/251 51/20/252
f 46/22/253 47/36/254 53/39/255 52/23/256
f 47/36/257 48/37/258 54/38/259 53/39/260
f 48/37/261 43/40/262 49/41/263 54/38/264
f 44/77/265 43/78/266 55/79/267
f 45/19/268 44/77/269 55/79/270
f 46/22/271 45/19/272 55/79/273
f 47/81/274 46/22/275 55/79/276
f 48/80/277 47/81/278 55/79/279
f 43/78/280 48/80/281 55/79/282
f 74/82/283 75/34/284 76/83/285
f 75/34/286 77/84/287 76/83/288
f 77/84/289 78/86/290 76/83/291
f 78/86/292 79/87/293 76/83/294
f 79/87/295 80/85/296 76/83/297
f 80/85/298 74/82/299 76/83/300
f 49/105/301 50/21/302 57/25/303 56/106/304
f 50/21/305 51/20/306 58/24/307 57/25/308
f 51/20/309 52/23/310 59/26/311 58/24/312
f 52/23/313 53/39/314 60/43/315 59/26/316
f 53/39/317 54/38/318 61/42/319 60/43/320
f 54/38/321 49/41/322 56/44/323 61/42/324
f 56/106/325 57/25/326 63/28/327 62/107/328
f 57/25/329 58/24/330 64/27/331 63/28/332
f 58/24/333 59/26/334 65/29/335 64/27/336
f 59/26/337 60/43/338 66/46/339 65/29/340
f 60/43/341 61/42/342 67/45/343 66/46/344
f 61/42/345 56/44/346 62/47/347 67/45/348
f 62/107/349 63/28/350 69/31/351 68/94/352
f 63/28/353 64/27/354 70/30/355 69/31/356
f 64/27/357 65/29/358 71/32/359 70/30/360
f 65/29/361 66/46/362 72/110/363 71/32/364
f 81/88/365 82/89/366 83/90/367 84/91/368
f 87//369 88//370 89//371 90//372
f 68/94/373 69/31/374 75/34/375 74/82/376
f 69/31/377 70/30/378 77/33/379 75/34/380
f 70/30/381 71/32/382 78/35/383 77/33/384
f 71/32/385 72/110/386 79/112/387 78/35/388
f 72/110/389 73/113/390 80/114/391 79/112/392
f 73/92/393 68/94/394 74/82/395 80/109/396
f 66/46/397 67/45/398 82/48/399 81/49/400
f 73/92/401 72/93/402 84/91/403 83/90/404
f 72/110/405 66/46/406 81/49/407 84/111/408
f 67/45/409 62/47/410 85/50/411 82/48/412
f 62/107/413 68/94/414 86/95/415 85/108/416
f 68/94/417 73/92/418 83/90/419 86/95/420
f 82//421 85//422 88//423 87//424
f 85//425 86//426 89//427 88//428
f 86//429 83//430 90//431 89//432
f 83//433 82//434 87//435 90//436
